<svg width="15" height="15" viewBox="0 0 15 15" fill="none" xmlns="http://www.w3.org/2000/svg">
<path d="M1.66976 10.1666V2.16659H0.336426V0.833252H2.33643C2.70462 0.833252 3.00309 1.13173 3.00309 1.49992V9.49992H11.2954L12.6287 4.16659H4.33643V2.83325H13.4826C13.8508 2.83325 14.1492 3.13173 14.1492 3.49992C14.1492 3.55443 14.1426 3.60873 14.1293 3.66161L12.4626 10.3283C12.3885 10.6251 12.1218 10.8333 11.8159 10.8333H2.33643C1.96824 10.8333 1.66976 10.5348 1.66976 10.1666ZM3.00309 14.8333C2.26671 14.8333 1.66976 14.2363 1.66976 13.4999C1.66976 12.7635 2.26671 12.1666 3.00309 12.1666C3.73947 12.1666 4.33643 12.7635 4.33643 13.4999C4.33643 14.2363 3.73947 14.8333 3.00309 14.8333ZM11.0031 14.8333C10.2667 14.8333 9.66977 14.2363 9.66977 13.4999C9.66977 12.7635 10.2667 12.1666 11.0031 12.1666C11.7395 12.1666 12.3364 12.7635 12.3364 13.4999C12.3364 14.2363 11.7395 14.8333 11.0031 14.8333Z" fill="#333333"/>
</svg>
