<svg width="14" height="14" viewBox="0 0 14 14" fill="none" xmlns="http://www.w3.org/2000/svg">
<path d="M5.02417 6.01158C5.7265 7.2466 6.7534 8.2735 7.98842 8.9758L8.6518 8.04708C8.87238 7.73838 9.2887 7.64297 9.6217 7.82485C10.6768 8.40123 11.8428 8.75148 13.0592 8.84778C13.4492 8.87868 13.75 9.20417 13.75 9.59545V12.9426C13.75 13.3271 13.4591 13.6493 13.0766 13.6886C12.6792 13.7295 12.2783 13.75 11.875 13.75C5.45469 13.75 0.25 8.5453 0.25 2.125C0.25 1.7217 0.270565 1.32078 0.311418 0.92332C0.350725 0.540812 0.672955 0.25 1.05749 0.25H4.40456C4.79583 0.25 5.12135 0.55078 5.15222 0.940817C5.2485 2.15716 5.59877 3.32323 6.17515 4.37833C6.35703 4.7113 6.26162 5.12766 5.95292 5.34818L5.02417 6.01158ZM3.13319 5.5189L4.55815 4.50107C4.1541 3.62885 3.87721 2.70387 3.73545 1.75H1.7568C1.75227 1.87474 1.75 1.99975 1.75 2.125C1.75 7.71685 6.28315 12.25 11.875 12.25C12.0002 12.25 12.1253 12.2478 12.25 12.2432V10.2645C11.2962 10.1228 10.3712 9.84587 9.49892 9.44185L8.4811 10.8668C8.06935 10.7069 7.6717 10.5186 7.29055 10.3046L7.24697 10.2797C5.77728 9.44402 4.55601 8.22272 3.72025 6.75303L3.69545 6.70945C3.48137 6.3283 3.29316 5.93065 3.13319 5.5189Z" fill="white"/>
</svg>
