<svg width="14" height="15" viewBox="0 0 14 15" fill="none" xmlns="http://www.w3.org/2000/svg">
<path d="M11.0208 10.5778L13.876 13.4329L12.9332 14.3757L10.078 11.5206C9.05143 12.3419 7.7495 12.8333 6.3335 12.8333C3.0215 12.8333 0.333496 10.1453 0.333496 6.83325C0.333496 3.52125 3.0215 0.833252 6.3335 0.833252C9.6455 0.833252 12.3335 3.52125 12.3335 6.83325C12.3335 8.24925 11.8422 9.55119 11.0208 10.5778ZM9.6833 10.0831C10.4985 9.24299 11.0002 8.09699 11.0002 6.83325C11.0002 4.25492 8.91183 2.16659 6.3335 2.16659C3.75516 2.16659 1.66683 4.25492 1.66683 6.83325C1.66683 9.41159 3.75516 11.4999 6.3335 11.4999C7.59723 11.4999 8.74323 10.9983 9.58336 10.1831L9.6833 10.0831Z" fill="#333333"/>
</svg>
