<svg width="18" height="13" viewBox="0 0 18 13" fill="none" xmlns="http://www.w3.org/2000/svg">
<path d="M6.72342 10.5C6.54146 11.7721 5.44743 12.75 4.125 12.75C2.80257 12.75 1.70855 11.7721 1.52658 10.5H0.75V1.5C0.75 1.08579 1.08579 0.75 1.5 0.75H12C12.4142 0.75 12.75 1.08579 12.75 1.5V3H15L17.25 6.04177V10.5H15.7235C15.5414 11.7721 14.4474 12.75 13.125 12.75C11.8026 12.75 10.7086 11.7721 10.5266 10.5H6.72342ZM11.25 2.25H2.25V8.28787C2.72645 7.80165 3.3905 7.5 4.125 7.5C5.17215 7.5 6.07609 8.11312 6.49739 9H10.7526C10.8784 8.73525 11.0472 8.4948 11.25 8.28787V2.25ZM12.75 6.75H15.75V6.53625L14.2438 4.5H12.75V6.75ZM13.125 11.25C13.6148 11.25 14.0315 10.9369 14.186 10.5C14.2274 10.3827 14.25 10.2565 14.25 10.125C14.25 9.5037 13.7463 9 13.125 9C12.5037 9 12 9.5037 12 10.125C12 10.2565 12.0226 10.3827 12.0641 10.5C12.2185 10.9369 12.6352 11.25 13.125 11.25ZM5.25 10.125C5.25 9.5037 4.74632 9 4.125 9C3.50368 9 3 9.5037 3 10.125C3 10.2565 3.02256 10.3827 3.06401 10.5C3.21845 10.9369 3.63517 11.25 4.125 11.25C4.61483 11.25 5.03155 10.9369 5.18599 10.5C5.22744 10.3827 5.25 10.2565 5.25 10.125Z" fill="white"/>
</svg>
